<?xml version="1.0" encoding="utf-8"?>
<svg version="1.1" id="Layer_1" xmlns="http://www.w3.org/2000/svg" xmlns:xlink="http://www.w3.org/1999/xlink" x="0px" y="0px"
	 viewBox="0 0 800 800" style="enable-background:new 0 0 800 800;" xml:space="preserve">
<style type="text/css">
	.st0{fill:#bbbbbb;}
</style>
<path class="st0" d="M742.4,418.6c-0.2-4.1-0.5-8.1-0.8-12.2c-12.9-111.3-79-205.3-171.9-256.7l-1.7-0.9l0,0l9.2-15.9l47.9-82.9
	c1-1.7,1.6-3.7,1.6-5.9c0-6.6-5.3-11.9-11.9-11.9c-4.4,0-8.2,2.4-10.2,5.9l0,0l-47.9,82.9l-9.9,17.1
	c-43.1-19.8-93.6-31.4-146.8-31.4c-52.3,0-102,11.2-146.8,31.3l0,0.1l-2.2,0.9c0.7-0.3,1.5-0.7,2.2-1l-9.8-17.1l-47.9-83
	c-2.1-3.6-5.9-5.9-10.3-5.9c-6.6,0-11.9,5.3-11.9,11.9c0,2.2,0.6,4.2,1.6,6l0,0l47.9,83l9.2,15.9C137.6,201,71.5,294.8,58.5,404.8
	c-0.4,4.6-0.7,9.2-0.9,13.8c-0.3,5.8-0.4,11.7-0.4,17.6c0,151.8,92.5,281.2,222.5,331.6l79-217.6c-44.7-17.3-76.5-61.8-76.5-114
	c0-6,0.4-11.9,1.2-17.6c8.3-58.9,57.3-104.1,116.6-104.1c59.3,0,108.4,45.2,116.6,104.1c0.8,5.8,1.2,11.6,1.2,17.6
	c0,52.2-31.8,96.7-76.5,114l79,217.6c130-50.4,222.5-179.8,222.5-331.6C742.9,430.3,742.7,424.4,742.4,418.6z M242.1,263.8
	c15.8,0,28.6,12.8,28.6,28.6c0,15.8-12.8,28.5-28.6,28.6c-15.8,0-28.6-12.8-28.6-28.6C213.6,276.6,226.4,263.8,242.1,263.8z
	 M557.8,263.8c15.8,0,28.6,12.8,28.6,28.6c0,15.8-12.8,28.5-28.6,28.6c-15.8,0-28.6-12.8-28.6-28.6
	C529.2,276.6,542,263.8,557.8,263.8z"/>
</svg>